<svg width="25" height="25" viewBox="0 0 25 25" fill="none" xmlns="http://www.w3.org/2000/svg">
<g clip-path="url(#clip0_0_382)">
<path d="M12.2952 1.73393C10.1765 1.73563 8.10134 2.33558 6.30859 3.46474H18.2655C16.4774 2.33854 14.4084 1.73871 12.2952 1.73393Z" fill="#B22234"/>
<path d="M6.30859 3.46474C5.53631 3.95363 4.82649 4.53482 4.19482 5.19545H20.4089C19.768 4.53291 19.0482 3.95165 18.2655 3.46474H6.30859Z" fill="white"/>
<path d="M4.19485 5.19545C3.68424 5.7263 3.227 6.30602 2.82971 6.92625H21.7737C21.3765 6.30604 20.9194 5.72632 20.4089 5.19545H4.19485Z" fill="#B22234"/>
<path d="M2.82977 6.92625C2.47469 7.47544 2.16817 8.05453 1.9137 8.65697H22.6687C22.421 8.05527 22.1216 7.47619 21.7738 6.92625H2.82977Z" fill="white"/>
<path d="M1.91367 8.65697C1.68332 9.21808 1.49873 9.7969 1.36169 10.3878H23.2281C23.0886 9.79668 22.9015 9.21786 22.6687 8.65697H1.91367Z" fill="#B22234"/>
<path d="M1.36172 10.3878C1.22583 10.9567 1.13452 11.5354 1.08862 12.1186H23.5087C23.4603 11.5352 23.3665 10.9565 23.2281 10.3878H1.36172Z" fill="white"/>
<path d="M1.08859 12.1187C1.06305 12.4065 1.04861 12.6952 1.04529 12.9841C1.04638 13.2729 1.0586 13.5615 1.08191 13.8494H23.502C23.5275 13.5616 23.542 13.273 23.5453 12.9841C23.5442 12.6952 23.532 12.4066 23.5087 12.1187H1.08859Z" fill="#B22234"/>
<path d="M1.08191 13.8492C1.13027 14.4325 1.2241 15.0112 1.36252 15.58H23.2289C23.3648 15.011 23.4561 14.4323 23.502 13.8492H1.08191Z" fill="white"/>
<path d="M1.36255 15.5801C1.50199 16.1712 1.68906 16.75 1.92194 17.3109H22.6769C22.9073 16.7498 23.0919 16.171 23.2289 15.5801H1.36255Z" fill="#B22234"/>
<path d="M1.92188 17.3109C2.16957 17.9126 2.469 18.4917 2.8168 19.0416H21.7608C22.1159 18.4924 22.4224 17.9133 22.6769 17.3109H1.92188Z" fill="white"/>
<path d="M2.81689 19.0416C3.21407 19.6618 3.67119 20.2415 4.18167 20.7724H20.3958C20.9064 20.2416 21.3636 19.6618 21.7609 19.0416H2.81689Z" fill="#B22234"/>
<path d="M4.18164 20.7724C4.82252 21.435 5.54239 22.0162 6.32507 22.5031H18.282C19.0542 22.0142 19.7641 21.433 20.3957 20.7724H4.18164Z" fill="white"/>
<path d="M6.32507 22.5031C8.11311 23.6293 10.1822 24.2292 12.2953 24.2339C14.414 24.2322 16.4892 23.6323 18.282 22.5031H6.32507Z" fill="#B22234"/>
<path d="M12.2953 1.73393C9.3116 1.73393 6.45012 2.9192 4.34034 5.02898C2.23055 7.13877 1.04529 10.0002 1.04529 12.9839C1.04676 13.2812 1.06001 13.5783 1.08502 13.8746H13.1859V1.77852C12.8897 1.75189 12.5926 1.73702 12.2953 1.73393Z" fill="#3C3B6E"/>
<path d="M8.269 2.4924C8.1191 2.54712 7.97039 2.60502 7.82296 2.66607L7.98729 2.79095L7.87615 3.15011L8.17058 2.93029L8.47362 3.16064L8.35982 2.78894L8.66286 2.56271H8.29051L8.269 2.4924ZM10.1773 2.1851L10.0604 2.56268H9.68935L9.98971 2.79098L9.87854 3.15009L10.173 2.93028L10.476 3.16063L10.3622 2.78898L10.6652 2.56268H10.2929L10.1773 2.1851ZM12.1797 2.1851L12.0628 2.56268H11.6917L11.9921 2.79098L11.8809 3.15009L12.1753 2.93028L12.4784 3.16063L12.3646 2.78898L12.6676 2.56268H12.2953L12.1797 2.1851ZM5.37447 4.13119C5.32157 4.17065 5.26901 4.21056 5.21681 4.25094L5.47005 4.44348L5.37447 4.13119ZM7.17371 3.46793L7.05682 3.84551H6.68577L6.98613 4.0738L6.87496 4.43292L7.16937 4.21311L7.47244 4.44345L7.35863 4.07181L7.66166 3.84551H7.28934L7.17371 3.46793ZM9.1761 3.46793L9.05921 3.84551H8.68816L8.98851 4.0738L8.87734 4.43292L9.17176 4.21311L9.47482 4.44345L9.36102 4.07181L9.66405 3.84551H9.29173L9.1761 3.46793ZM11.1785 3.46793L11.0616 3.84551H10.6905L10.9909 4.0738L10.8797 4.43292L11.1741 4.21311L11.4772 4.44345L11.3634 4.07181L11.6664 3.84551H11.2941L11.1785 3.46793ZM4.27648 5.09808C4.16551 5.21554 4.05709 5.33538 3.95128 5.45752L3.87136 5.7157L4.16579 5.49588L4.46883 5.72622L4.35503 5.35461L4.65807 5.12829H4.28572L4.27648 5.09808ZM6.17252 4.75071L6.05563 5.12829H5.68458L5.98493 5.35658L5.87376 5.7157L6.16818 5.49589L6.47125 5.72623L6.35744 5.35459L6.66047 5.12829H6.28815L6.17252 4.75071ZM8.17491 4.75071L8.05802 5.12829H7.68697L7.98732 5.35658L7.87615 5.7157L8.17056 5.49589L8.47363 5.72623L8.35982 5.35459L8.66285 5.12829H8.29054L8.17491 4.75071ZM10.1773 4.75071L10.0604 5.12829H9.68935L9.98971 5.35658L9.87854 5.7157L10.173 5.49589L10.476 5.72623L10.3622 5.35459L10.6652 5.12829H10.2929L10.1773 4.75071ZM12.1797 4.75071L12.0628 5.12829H11.6917L11.9921 5.35658L11.8809 5.7157L12.1753 5.49589L12.4784 5.72623L12.3646 5.35459L12.6676 5.12829H12.2953L12.1797 4.75071ZM3.25392 6.31097C3.15027 6.44911 3.04981 6.58962 2.95262 6.73239L2.87023 6.99853L3.16457 6.77871L3.4677 7.00906L3.3539 6.63745L3.65685 6.41113H3.28459L3.25392 6.31097ZM5.17133 6.03354L5.05444 6.41112H4.68339L4.98374 6.63941L4.87257 6.99853L5.16699 6.77872L5.47005 7.00906L5.35624 6.63742L5.65928 6.41112H5.28696L5.17133 6.03354ZM7.17371 6.03354L7.05682 6.41112H6.68577L6.98613 6.63941L6.87496 6.99853L7.16937 6.77872L7.47244 7.00906L7.35863 6.63742L7.66166 6.41112H7.28934L7.17371 6.03354ZM9.1761 6.03354L9.05921 6.41112H8.68816L8.98851 6.63941L8.87734 6.99853L9.17176 6.77872L9.47482 7.00906L9.36102 6.63742L9.66405 6.41112H9.29173L9.1761 6.03354ZM11.1785 6.03354L11.0616 6.41112H10.6905L10.9909 6.63941L10.8797 6.99853L11.1741 6.77872L11.4772 7.00906L11.3634 6.63742L11.6664 6.41112H11.2941L11.1785 6.03354ZM2.37648 7.69397C2.30925 7.81998 2.24441 7.94726 2.18202 8.07574L2.46648 8.2919L2.35268 7.92028L2.65572 7.69397H2.37648ZM4.17014 7.31637L4.05325 7.69395H3.68219L3.98255 7.92224L3.87138 8.28136L4.1658 8.06155L4.46886 8.29189L4.35506 7.92025L4.65808 7.69395H4.28576L4.17014 7.31637ZM6.17252 7.31637L6.05563 7.69395H5.68458L5.98493 7.92224L5.87376 8.28136L6.16818 8.06155L6.47125 8.29189L6.35744 7.92025L6.66047 7.69395H6.28815L6.17252 7.31637ZM8.17491 7.31637L8.05802 7.69395H7.68697L7.98732 7.92224L7.87615 8.28136L8.17056 8.06155L8.47363 8.29189L8.35982 7.92025L8.66285 7.69395H8.29054L8.17491 7.31637ZM10.1773 7.31637L10.0604 7.69395H9.68935L9.98971 7.92224L9.87854 8.28136L10.173 8.06155L10.476 8.29189L10.3622 7.92025L10.6652 7.69395H10.2929L10.1773 7.31637ZM12.1797 7.31637L12.0628 7.69395H11.6917L11.9921 7.92224L11.8809 8.28136L12.1753 8.06155L12.4784 8.29189L12.3646 7.92025L12.6676 7.69395H12.2953L12.1797 7.31637ZM3.16895 8.59915L3.05206 8.97672H2.681L2.98136 9.20502L2.87019 9.56413L3.1646 9.34433L3.46767 9.57467L3.35386 9.20302L3.65689 8.97672H3.28457L3.16895 8.59915ZM5.17133 8.59915L5.05444 8.97672H4.68339L4.98374 9.20502L4.87257 9.56413L5.16699 9.34433L5.47005 9.57467L5.35624 9.20302L5.65928 8.97672H5.28696L5.17133 8.59915ZM7.17371 8.59915L7.05682 8.97672H6.68577L6.98613 9.20502L6.87496 9.56413L7.16937 9.34433L7.47244 9.57467L7.35863 9.20302L7.66166 8.97672H7.28934L7.17371 8.59915ZM9.1761 8.59915L9.05921 8.97672H8.68816L8.98851 9.20502L8.87734 9.56413L9.17176 9.34433L9.47482 9.57467L9.36102 9.20302L9.66405 8.97672H9.29173L9.1761 8.59915ZM11.1785 8.59915L11.0616 8.97672H10.6905L10.9909 9.20502L10.8797 9.56413L11.1741 9.34433L11.4772 9.57467L11.3634 9.20302L11.6664 8.97672H11.2941L11.1785 8.59915ZM2.16775 9.88198L2.05087 10.2596H1.67981L1.98017 10.4878L1.869 10.847L2.16341 10.6272L2.46648 10.8575L2.35267 10.4859L2.6557 10.2596H2.28338L2.16775 9.88198ZM4.17014 9.88198L4.05325 10.2596H3.68219L3.98255 10.4878L3.87138 10.847L4.1658 10.6272L4.46886 10.8575L4.35506 10.4859L4.65808 10.2596H4.28576L4.17014 9.88198ZM6.17252 9.88198L6.05563 10.2596H5.68458L5.98493 10.4878L5.87376 10.847L6.16818 10.6272L6.47125 10.8575L6.35744 10.4859L6.66047 10.2596H6.28815L6.17252 9.88198ZM8.17491 9.88198L8.05802 10.2596H7.68697L7.98732 10.4878L7.87615 10.847L8.17056 10.6272L8.47363 10.8575L8.35982 10.4859L8.66285 10.2596H8.29054L8.17491 9.88198ZM10.1773 9.88198L10.0604 10.2596H9.68935L9.98971 10.4878L9.87854 10.847L10.173 10.6272L10.476 10.8575L10.3622 10.4859L10.6652 10.2596H10.2929L10.1773 9.88198ZM12.1797 9.88198L12.0628 10.2596H11.6917L11.9921 10.4878L11.8809 10.847L12.1753 10.6272L12.4784 10.8575L12.3646 10.4859L12.6676 10.2596H12.2953L12.1797 9.88198ZM3.16895 11.1648L3.05206 11.5424H2.681L2.98136 11.7707L2.87019 12.1298L3.1646 11.91L3.46767 12.1403L3.35386 11.7687L3.65689 11.5424H3.28457L3.16895 11.1648ZM5.17133 11.1648L5.05444 11.5424H4.68339L4.98374 11.7707L4.87257 12.1298L5.16699 11.91L5.47005 12.1403L5.35624 11.7687L5.65928 11.5424H5.28696L5.17133 11.1648ZM7.17371 11.1648L7.05682 11.5424H6.68577L6.98613 11.7707L6.87496 12.1298L7.16937 11.91L7.47244 12.1403L7.35863 11.7687L7.66166 11.5424H7.28934L7.17371 11.1648ZM9.1761 11.1648L9.05921 11.5424H8.68816L8.98851 11.7707L8.87734 12.1298L9.17176 11.91L9.47482 12.1403L9.36102 11.7687L9.66405 11.5424H9.29173L9.1761 11.1648ZM11.1785 11.1648L11.0616 11.5424H10.6905L10.9909 11.7707L10.8797 12.1298L11.1741 11.91L11.4772 12.1403L11.3634 11.7687L11.6664 11.5424H11.2941L11.1785 11.1648ZM2.16775 12.4476L2.05087 12.8252H1.67981L1.98017 13.0535L1.869 13.4126L2.16341 13.1928L2.46648 13.4231L2.35267 13.0515L2.6557 12.8252H2.28338L2.16775 12.4476ZM4.17014 12.4476L4.05325 12.8252H3.68219L3.98255 13.0535L3.87138 13.4126L4.1658 13.1928L4.46886 13.4231L4.35506 13.0515L4.65808 12.8252H4.28576L4.17014 12.4476ZM6.17252 12.4476L6.05563 12.8252H5.68458L5.98493 13.0535L5.87376 13.4126L6.16818 13.1928L6.47125 13.4231L6.35744 13.0515L6.66047 12.8252H6.28815L6.17252 12.4476ZM8.17491 12.4476L8.05802 12.8252H7.68697L7.98732 13.0535L7.87615 13.4126L8.17056 13.1928L8.47363 13.4231L8.35982 13.0515L8.66285 12.8252H8.29054L8.17491 12.4476ZM10.1773 12.4476L10.0604 12.8252H9.68935L9.98971 13.0535L9.87854 13.4126L10.173 13.1928L10.476 13.4231L10.3622 13.0515L10.6652 12.8252H10.2929L10.1773 12.4476ZM12.1797 12.4476L12.0628 12.8252H11.6917L11.9921 13.0535L11.8809 13.4126L12.1753 13.1928L12.4784 13.4231L12.3646 13.0515L12.6676 12.8252H12.2953L12.1797 12.4476Z" fill="white"/>
</g>
<defs>
<clipPath id="clip0_0_382">
<rect width="24" height="24" fill="white" transform="translate(0.295288 0.983932)"/>
</clipPath>
</defs>
</svg>
